{"title":"Fright Night *2011* [TS.XviD-miguel] [ENG]","uid":6644637,"size":1072762125,"categoryP":"video","categoryS":"movies","magnet":"?xt=urn:btih:ae3532963dab972de857854d5d6466a16a9dcbd4&amp;dn=Fright+Night+%2A2011%2A+%5BTS.XviD-miguel%5D+%5BENG%5D&amp;tr=udp%3A%2F%2Ftracker.openbittorrent.com%3A80&amp;tr=udp%3A%2F%2Fopen.demonii.com%3A1337&amp;tr=udp%3A%2F%2Ftracker.coppersurfer.tk%3A6969&amp;tr=udp%3A%2F%2Fexodus.desync.com%3A6969","seeders":0,"leechers":0,"uploader":"miguel1983","files":-1,"time":1314899562,"description":" &lt;a href=&quot;http://img9.imageshack.us/img9/7366/frightnight2011.jpg&quot; rel=&quot;nofollow&quot; target=&quot;_NEW&quot;&gt;http://img9.imageshack.us/img9/7366/frightnight2011.jpg&lt;/a&gt;\n\nCountry.......: USA, India\nGenre.........: Comedy, Horror\nDate release..: 14.08.2011 [World]\nDirector......: Craig Gillespie\nWriters.......: Marti Noxon, Tom Holland\nDuration......: 98 min.\nMore..........: http://www.imdb.com/title/tt1438176\nTrailer.......: http://www.imdb.com/video/imdb/vi341875993\nTrailer.......:\n\nPilot :\nThe life of a teenage Charlie Brewster (Anton Yelchin) is placed in the end as it should be: it is popular and dating the coolest girl in school. Problems arise when the home side introduced Jerry (Colin Farrell) - a seemingly great guy, but there is something disturbing, and only Charlie seems to notice. The others - including Charlie's mother (Toni Collette) - do not see the difference a new neighbor. at insightful observations of teenage neighbor comes to the only legitimate conclusion - Jerry is a vampire, and Charlie on their own must be reset to get rid of the monster in his district.\n\nCats :\nAnton Yelchin   \t ...  \tCharley Brewster\nColin Farrell \t... \tJerry\nToni Collette \t... \tJane Brewster\nDavid Tennant \t... \tPeter Vincent\nImogen Poots \t... \tAmy\nChristopher Mintz Plasse \t... \tEd\nDave Franco \t... \tMark\nReid Ewing \t... \tBen\nWill Denton \t... \tAdam\nSandra Vergara \t... \tGinger\nEmily Montague \t... \tDoris\nChris Sarandon \t... \tJay Dee\nGrace Phipps \t... \tBee\nChelsea Tavares \t... \tCara\nLisa Loeb \t... \tVictoria \n\nData Technical :\n!!! SAMPLE !!!\nAudio.....: English\nSubtitles.: None\nFormat                           : AVI\nFormat/Info                      : Audio Video Interleave\nFile size                        : 1 015 MiB\nDuration                         : 1h 38mn\nOverall bit rate                 : 1 444 Kbps\nVideo\nID                               : 0\nFormat                           : MPEG-4 Visual\nFormat profile                   : Advanced Simple@L5\nFormat settings, BVOP            : Yes\nFormat settings, QPel            : No\nFormat settings, GMC             : No warppoints\nFormat settings, Matrix          : Default (H.263)\nMuxing mode                      : Packed bitstream\nCodec ID                         : XVID\nCodec ID/Hint                    : XviD\nDuration                         : 1h 38mn\nBit rate                         : 1 309 Kbps\nWidth                            : 720 pixels\nHeight                           : 304 pixels\nDisplay aspect ratio             : 2.35:1\nFrame rate                       : 29.970 fps\nColor space                      : YUV\nChroma subsampling               : 4:2:0\nBit depth                        : 8 bits\nScan type                        : Progressive\nBits/(Pixel*Frame)               : 0.200\nStream size                      : 920 MiB (91%)\nWriting library                  : XviD 64\nAudio\nID                               : 1\nFormat                           : MPEG Audio\nFormat version                   : Version 1\nFormat profile                   : Layer 3\nMode                             : Joint stereo\nMode extension                   : MS Stereo\nCodec ID                         : 55\nCodec ID/Hint                    : MP3\nDuration                         : 1h 38mn\nBit rate mode                    : Constant\nBit rate                         : 128 Kbps\nChannel(s)                       : 2 channels\nSampling rate                    : 44.1 KHz\nStream size                      : 89.9 MiB (9%)\nAlignment                        : Aligned on interleaves\nInterleave, duration             : 133 ms (4.00 video frames)\nInterleave, preload duration     : 208 ms\n\nScreen : &lt;a href=&quot;\nhttp://img546.imageshack.us/img546/5622/frightnight2011s1.jpg&quot; rel=&quot;nofollow&quot; target=&quot;_NEW&quot;&gt;\nhttp://img546.imageshack.us/img546/5622/frightnight2011s1.jpg&lt;/a&gt; &lt;a href=&quot;\nhttp://img718.imageshack.us/img718/3001/frightnight2011s2.jpg&quot; rel=&quot;nofollow&quot; target=&quot;_NEW&quot;&gt;\nhttp://img718.imageshack.us/img718/3001/frightnight2011s2.jpg&lt;/a&gt; &lt;a href=&quot;\nhttp://img231.imageshack.us/img231/408/frightnight2011s3.jpg&quot; rel=&quot;nofollow&quot; target=&quot;_NEW&quot;&gt;\nhttp://img231.imageshack.us/img231/408/frightnight2011s3.jpg&lt;/a&gt; &lt;a href=&quot;\nhttp://img202.imageshack.us/img202/3720/frightnight2011s4.jpg&quot; rel=&quot;nofollow&quot; target=&quot;_NEW&quot;&gt;\nhttp://img202.imageshack.us/img202/3720/frightnight2011s4.jpg&lt;/a&gt; &lt;a href=&quot;\nhttp://img710.imageshack.us/img710/7537/frightnight2011s5.jpg&quot; rel=&quot;nofollow&quot; target=&quot;_NEW&quot;&gt;\nhttp://img710.imageshack.us/img710/7537/frightnight2011s5.jpg&lt;/a&gt;","torrent":{"xt":"urn:btih:ae3532963dab972de857854d5d6466a16a9dcbd4","amp;dn":"Fright+Night+%2A2011%2A+%5BTS.XviD-miguel%5D+%5BENG%5D","amp;tr":["udp%3A%2F%2Ftracker.openbittorrent.com%3A80","udp%3A%2F%2Fopen.demonii.com%3A1337","udp%3A%2F%2Ftracker.coppersurfer.tk%3A6969","udp%3A%2F%2Fexodus.desync.com%3A6969"],"infoHash":"ae3532963dab972de857854d5d6466a16a9dcbd4","infoHashBuffer":{"type":"Buffer","data":[174,53,50,150,61,171,151,45,232,87,133,77,93,100,102,161,106,157,203,212]},"announce":[],"urlList":[]}}